PathFileType	4	(X/Y/Z)	C:/Users/opensim2020/Desktop/walking_exp_matlab/subject02_walking09_straight_02.trc	
DataRate	CameraRate	NumFrames	NumMarkers	Units	OrigDataRate	OrigDataStartFrame	OrigNumFrames	
100.00	100.00	7	42	mm	100.00	1268	436	
Frame#	Time	LFHD			RFHD			LBHD			RBHD			C7			T10			CLAV			STRN			RBAK			LSHO			LUPA			LELB			LFRM			LWRA			LWRB			LFIN			RSHO			RUPA			RELB			RFRM			RWRA			RWRB			RFIN			LASI			RASI			LPSI			RPSI			LTHI			LKNE			LTIB			LANK			LHEE			LTOE			RTHI			RKNE			RTIB			RANK			RHEE			RTOE			*39			*40			*41			
		X1	Y1	Z1	X2	Y2	Z2	X3	Y3	Z3	X4	Y4	Z4	X5	Y5	Z5	X6	Y6	Z6	X7	Y7	Z7	X8	Y8	Z8	X9	Y9	Z9	X10	Y10	Z10	X11	Y11	Z11	X12	Y12	Z12	X13	Y13	Z13	X14	Y14	Z14	X15	Y15	Z15	X16	Y16	Z16	X17	Y17	Z17	X18	Y18	Z18	X19	Y19	Z19	X20	Y20	Z20	X21	Y21	Z21	X22	Y22	Z22	X23	Y23	Z23	X24	Y24	Z24	X25	Y25	Z25	X26	Y26	Z26	X27	Y27	Z27	X28	Y28	Z28	X29	Y29	Z29	X30	Y30	Z30	X31	Y31	Z31	X32	Y32	Z32	X33	Y33	Z33	X34	Y34	Z34	X35	Y35	Z35	X36	Y36	Z36	X37	Y37	Z37	X38	Y38	Z38	X39	Y39	Z39	X40	Y40	Z40	X41	Y41	Z41	X42	Y42	Z42	

55	0.540	1166.89709	1701.57422	1742.60425	1029.85364	1670.68347	1717.36987	1148.56238	1830.12952	1666.08154	1010.74811	1811.78772	1640.28467	1042.83496	1862.61865	1528.71875	1001.26929	1912.98376	1254.57178	1125.17139	1752.21045	1454.09814	1141.08533	1706.55786	1281.48718	949.52350	1880.26831	1357.67346	1226.36951	1905.27466	1500.14258	1267.73901	2000.46167	1314.01721	1260.38550	2039.41492	1179.11169	1269.57446	2079.37012	1053.77112	1279.94336	2056.72729	914.81891	1275.07263	2112.80884	935.40436	1283.02563	2116.87305	867.20068	928.94043	1695.26648	1493.39246	850.58527	1652.56738	1300.28931	858.15741	1606.83777	1158.13037	882.50018	1545.12134	1055.81848	951.13965	1484.93237	955.19092	902.90619	1504.25061	933.41504	932.44867	1453.84595	890.45532	1242.91931	1790.25049	992.42072	1018.74249	1663.13647	965.60321	1065.19312	1931.10120	1036.58728	963.86487	1878.68677	1033.62024	1311.40259	1843.16882	696.75220	1317.45227	1804.50940	499.19766	1334.26489	1810.98218	306.30490	1367.90552	1744.32312	91.92051	1312.25598	1741.76379	56.20212	1453.16711	1609.32166	81.87669	917.22778	1751.07166	666.91779	933.39209	1814.02612	462.26031	887.05463	1890.71191	294.86859	889.81409	1972.48914	114.47671	913.84430	2042.22327	66.84945	954.07770	1846.42529	45.38135	1052.56604	1780.42468	1801.36389	-3360.18604	2845.11865	1034.17517			 
56	0.550	1172.31360	1696.52271	1741.99878	1035.04041	1665.98108	1716.37952	1154.35693	1824.99939	1665.26147	1016.55212	1806.95776	1639.38965	1048.79041	1857.44336	1527.84314	1007.58398	1907.64099	1253.56653	1131.06335	1746.74377	1453.47925	1146.66479	1700.68152	1280.84814	955.61426	1875.19263	1356.69434	1232.70508	1900.00720	1499.33020	1271.90564	1993.09009	1311.92273	1266.56677	2033.90161	1178.30664	1275.88586	2074.15601	1053.12488	1286.53186	2052.02808	914.18555	1280.80188	2107.84131	935.08105	1289.54028	2112.29199	866.72162	934.47375	1690.30798	1492.58459	855.88763	1648.16650	1299.60693	862.91400	1603.21375	1157.01721	886.97223	1541.50720	1054.34216	955.21130	1482.25171	953.30261	906.67651	1501.82349	931.68719	936.08380	1451.58850	888.30627	1248.96167	1783.41968	991.88342	1024.25781	1657.24817	964.99304	1071.96387	1925.17627	1035.75049	970.41431	1873.30481	1032.80542	1317.48279	1835.59717	695.77301	1322.02869	1796.10669	497.95700	1337.69421	1804.36951	305.03296	1369.26563	1738.75159	90.01133	1313.55664	1736.62024	54.54605	1453.68970	1603.34485	78.78806	921.10400	1746.91870	666.58533	936.31757	1810.53430	462.12515	888.75983	1888.70581	295.75079	890.08063	1972.08801	115.87868	913.84143	2041.80762	68.67100	953.99628	1846.27539	45.39582	1057.54700	1775.35266	1800.45190	-3360.22803	2845.24829	1034.08508			 
57	0.560	1177.76868	1691.51965	1741.42419	1040.48816	1661.10779	1715.88733	1160.24036	1819.87561	1664.41956	1022.27515	1802.01111	1638.46814	1054.68872	1852.26392	1526.91907	1014.02930	1902.20215	1252.44666	1136.93335	1741.17468	1452.87830	1152.35132	1694.85632	1280.24231	961.77032	1870.08850	1355.66980	1238.56238	1894.17920	1498.37061	1278.13245	1987.34033	1311.01563	1273.09167	2028.33337	1177.58191	1282.41418	2068.79956	1052.49268	1293.09204	2046.96851	913.44171	1284.18359	2099.93481	932.05090	1296.26208	2107.43799	866.21179	939.91003	1685.43433	1491.78882	861.15027	1643.94885	1298.84985	867.92981	1599.69434	1156.11365	891.24310	1539.25525	1052.93384	959.00354	1479.86938	951.19904	910.42133	1499.64746	929.90948	939.42664	1449.67810	886.07611	1255.54065	1776.52002	991.59436	1029.60181	1651.53821	964.13733	1079.01379	1919.16980	1034.87219	977.26721	1867.83765	1031.96448	1323.45837	1828.06042	694.69763	1326.73914	1788.79724	496.71295	1341.06140	1798.06421	303.71909	1370.61377	1733.65112	87.99911	1314.46265	1731.61902	52.44224	1454.12415	1597.71655	75.69078	925.38110	1742.64111	666.26373	939.37933	1806.87817	462.03870	890.60114	1886.57056	296.71674	890.47504	1971.40149	117.47737	913.87158	2041.27405	70.63700	953.88611	1846.04407	45.34963	1063.20862	1770.68762	1799.62463	-3360.28198	2845.14600	1034.05737			 
58	0.570	1183.35059	1686.50806	1740.82397	1046.25732	1656.47607	1715.41602	1166.09766	1814.70386	1663.54895	1028.14148	1797.08276	1637.60510	1060.80530	1847.16931	1525.99011	1020.65094	1896.77332	1251.30347	1142.76013	1735.67285	1452.15320	1158.52307	1688.82422	1279.90833	968.10101	1865.05896	1354.56116	1244.95227	1888.74292	1497.58008	1287.27441	1983.88940	1311.65942	1279.60583	2022.63904	1176.80444	1289.12915	2063.31592	1051.81555	1299.88049	2041.63110	912.67017	1290.93030	2094.59595	931.44513	1303.31885	2102.39648	865.78070	945.55902	1680.56750	1491.01892	866.72876	1639.43481	1298.11462	873.28522	1596.33875	1155.20947	895.64252	1536.50073	1051.65332	962.46948	1477.42639	948.87183	914.02502	1497.66345	928.14758	942.67841	1447.93616	883.63477	1261.92212	1769.19263	991.09467	1035.55933	1645.70361	963.52332	1086.42578	1912.97595	1033.99036	984.25836	1862.32117	1031.03455	1329.42163	1820.57312	693.52417	1331.55322	1781.79736	495.48743	1344.38086	1792.05847	302.31873	1371.95959	1728.86707	85.90915	1315.72131	1728.16553	50.99074	1453.98340	1592.25256	72.15389	929.74005	1738.31470	665.94586	942.58728	1803.07861	461.90866	892.53363	1884.42126	297.71414	890.20520	1970.77087	119.37221	913.84308	2040.67542	72.68584	953.79639	1845.87939	45.39246	1069.55286	1766.53894	1798.92834	-3357.01758	2845.87476	1034.23401			 
59	0.580	1189.07690	1681.49792	1740.09265	1051.91003	1651.53186	1714.67615	1172.03723	1809.56677	1662.60986	1034.13464	1792.19360	1636.68982	1067.03906	1842.03772	1524.88928	1027.52441	1891.21155	1250.05505	1148.66211	1730.16992	1451.45996	1164.36292	1682.76892	1279.21069	974.58234	1859.98181	1353.34668	1250.93091	1882.86548	1496.65137	1294.48132	1978.42395	1310.75293	1286.39722	2016.82800	1176.05518	1295.95508	2057.57935	1051.07483	1307.07544	2036.13074	912.02277	1299.84961	2090.70850	932.12268	1310.46741	2097.01831	865.33203	951.12482	1675.76013	1490.18884	872.16785	1635.39844	1297.48010	878.33374	1592.96228	1154.12671	900.49994	1534.05737	1049.90076	965.93481	1475.16809	946.46619	917.44708	1495.76770	926.21295	945.73627	1446.44189	881.09448	1268.89087	1761.77283	990.82056	1041.50452	1639.74109	962.73248	1094.16394	1906.74841	1033.06567	991.68640	1856.73621	1030.14148	1335.32056	1813.06104	692.24030	1336.06604	1775.00854	493.92831	1347.80420	1786.38232	300.79123	1373.23291	1724.57251	83.56918	1316.66943	1724.61194	49.07421	1453.44067	1586.91797	68.21101	934.33630	1733.78735	665.55878	946.03381	1798.91931	461.54712	894.59857	1882.09583	298.75424	890.50171	1969.93445	121.12262	913.94653	2040.04395	74.96610	953.68951	1845.61597	45.33522	1075.24561	1761.70764	1797.98474	-3360.26514	2845.18945	1034.24316			 
60	0.590	1194.57288	1676.36975	1739.24646	1057.36243	1646.68982	1713.73865	1178.05786	1804.43787	1661.61194	1040.06372	1787.30237	1635.63770	1073.23645	1836.89575	1523.65955	1034.60596	1885.68335	1248.60986	1154.68335	1724.61206	1450.70654	1170.38867	1676.70020	1278.63269	981.18109	1854.92468	1351.96252	1257.39575	1877.43457	1495.86829	1297.76233	1969.92236	1308.37598	1293.26294	2010.92615	1175.16943	1303.07898	2051.72485	1050.32410	1314.30994	2030.28284	911.20551	1305.07288	2083.18921	929.96924	1318.04553	2091.50537	864.71930	956.84039	1670.96570	1489.34778	877.82916	1631.08398	1296.73901	883.71484	1589.86121	1153.36792	904.32526	1530.60217	1048.42908	969.37494	1473.26367	944.08551	920.62567	1493.94043	924.21625	948.68707	1445.09900	878.47858	1275.86462	1754.02612	990.40826	1047.49243	1633.76990	961.86780	1102.20850	1900.38464	1032.06055	999.28821	1851.06543	1029.04590	1341.18555	1805.52856	690.78961	1340.72437	1768.72632	492.22263	1351.21143	1781.02014	298.94305	1374.92517	1720.74841	81.35049	1318.14014	1722.14746	48.14325	1452.66345	1581.82971	63.92626	939.19366	1729.13696	665.24719	949.46454	1794.92334	461.46616	896.79254	1879.58203	299.76300	890.96332	1968.99170	123.05815	914.28766	2039.33276	77.36344	953.59381	1845.39990	45.31358	1081.18311	1757.05920	1797.12427	-3360.23706	2845.14941	1034.21423			 
61	0.600	1200.39075	1671.40198	1738.35217	1062.99463	1642.02344	1713.06824	1183.99133	1799.29932	1660.49866	1046.05676	1782.42810	1634.62048	1079.42249	1831.85254	1522.44495	1041.96045	1880.09436	1247.03308	1160.54993	1719.05811	1449.82104	1176.79700	1670.51501	1278.17871	987.89148	1849.82568	1350.36292	1263.61694	1871.45935	1494.78955	1304.57898	1964.04224	1307.40735	1300.22974	2004.85107	1174.16980	1310.25281	2045.58716	1049.35669	1321.65979	2024.12988	910.23499	1314.32593	2078.73633	930.38721	1324.86072	2085.07959	863.42413	962.34357	1667.48181	1489.13184	883.77368	1627.12012	1296.24219	888.95453	1586.73352	1152.29688	908.64368	1528.26416	1046.86853	972.46667	1471.32385	941.55426	923.91748	1492.45044	922.31818	951.41876	1443.95337	875.77142	1282.95801	1746.05505	989.96906	1053.39624	1627.69934	960.85419	1110.52600	1893.96960	1031.03247	1007.14838	1845.39258	1027.87463	1347.18506	1798.01221	689.41577	1345.33740	1762.85400	490.32623	1354.58276	1775.92737	296.86584	1376.71204	1717.26648	79.31086	1320.26172	1721.20752	48.19104	1451.60693	1576.54285	57.77818	943.89105	1724.35962	664.91669	953.12842	1790.55066	461.53265	899.21887	1877.16223	301.15448	891.52661	1968.07739	125.25394	914.65881	2038.58081	80.00047	953.48969	1845.17908	45.29499	1087.13782	1752.38391	1796.10620	-3360.38354	2845.20215	1034.09705			 
